# xmcd
#
# Track frame offsets:
#	150
#	16821
#	34710
#	48687
#	68590
#	86299
#	107117
#	124063
#	139690
#	159315
#	177118
#	195969
#	211685
#	228576
#	241885
#
# Disc length: 3513 seconds
#
# Revision: 1
# Processed by: cddbd v1.5.2PL0 Copyright (c) Steve Scherf et al.
# Submitted via: audiograbber 1.83.01
#
DISCID=b60db70f
DTITLE=Mike Goudreault - Blues Et Cetera
DYEAR=2009
DGENRE=Blues
TTITLE0=Mend My Broken Heart
TTITLE1=Why I'd Drink So Much
TTITLE2=Jello On A Roller Coaster
TTITLE3=It's Too Late
TTITLE4=Won't You Pardon Me
TTITLE5=Chicken Boogaloo
TTITLE6=Growing Pains
TTITLE7=Crazy Johnny
TTITLE8=Change My Mind
TTITLE9=Leaving For Paris
TTITLE10=Big Black Dog
TTITLE11=Poor Lonely People
TTITLE12=I'm Still Cryin
TTITLE13=Let Me Down Easy
TTITLE14=Gossipin Mama
EXTD=
EXTT0=
EXTT1=
EXTT2=
EXTT3=
EXTT4=
EXTT5=
EXTT6=
EXTT7=
EXTT8=
EXTT9=
EXTT10=
EXTT11=
EXTT12=
EXTT13=
EXTT14=
PLAYORDER=
